<svg width="217" height="310" xmlns="http://www.w3.org/2000/svg">

 <metadata id="imagebot_56">image/svg+xml</metadata>
 <g id="imagebot_4" label="Layer 1">
  <title label="Layer 1"/>
  <rect label="Layer 1" fill="#5a5c8c" stroke="#000000" stroke-width="2.3996" stroke-miterlimit="4" id="imagebot_55" width="82.97" height="106.2" x="1535" y="840.1" rx="40.69" ry="6.596" transform="matrix(0.718067, -0.00899794, 0.00897673, 0.719763, -1023.4, -382.689)"/>
  <path label="Layer 1" transform="matrix(0.718139, 0, 0, 0.719835, -1023.4, -382.689)" fill="#666666" stroke="#000000" stroke-width="2.4" stroke-miterlimit="4" d="M1649,939.20001C1648,927.70001 1638,918.79999 1627,917.40002C1615,914.29999 1603,916.40002 1591,916.70001C1582,919 1572,921.5 1567,930.09998C1562,934.59998 1567,941.09998 1573,939C1595,941.5 1617,941 1638,940.5C1642,939.90002 1646,941.59998 1649,939.20001z" id="imagebot_54"/>
  <rect label="Layer 1" fill="#5a5c8c" stroke="#000000" stroke-width="2.3996" stroke-miterlimit="4" transform="matrix(0.718067, -0.00899794, 0.00897673, 0.719763, -1023.4, -382.689)" ry="6.597" rx="40.69" y="845.5" x="1480" height="106.2" width="82.99" id="imagebot_53"/>
  <path label="Layer 1" transform="matrix(0.718139, 0, 0, 0.719835, -1023.4, -382.689)" fill="#666666" stroke="#000000" stroke-width="2.4" stroke-miterlimit="4" d="M1581,941.79999C1580,930.5 1570,921.59998 1559,920.20001C1548,916.59998 1536,919.20001 1524,919C1515,921.20001 1504,924.20001 1498,932.59998C1494,937.90002 1499,943.40002 1505,941.59998C1527,944.09998 1549,943.79999 1571,943C1575,942.40002 1578,944.20001 1581,941.79999z" id="imagebot_52"/>
  <path label="Layer 1" fill="#d9cdcb" fill-rule="evenodd" stroke="#000000" stroke-width="2.4001" stroke-linecap="round" stroke-linejoin="round" stroke-miterlimit="4" id="imagebot_51" d="M1548,953.20001C1559,953.90002 1571,954.5 1581,955.20001C1580,979.09998 1578,1002 1577,1025C1568,1042 1543,1040 1539,1027C1539,999.29999 1546,978 1548,953.20001z" transform="matrix(0.714046, -0.0765904, 0.07641, 0.715732, -1152.38, -375.031)"/>
  <path label="Layer 1" fill="#d9cdcb" fill-rule="evenodd" stroke="#000000" stroke-width="2.4001" stroke-linecap="round" stroke-linejoin="round" stroke-miterlimit="4" id="imagebot_50" d="M1579,960.79999C1583,958.29999 1586,944.09998 1583,938.5C1569,936.70001 1557,927 1543,935.09998C1543,935.09998 1532,989.40002 1536,992C1551,994.90002 1558,958.59998 1558,958.59998L1579,960.79999z" transform="matrix(0.714046, -0.0765904, 0.07641, 0.715732, -1152.38, -375.031)"/>
  <path label="Layer 1" fill="#d9c59d" fill-rule="evenodd" stroke="#000000" stroke-width="19.5924" stroke-linecap="round" stroke-linejoin="round" stroke-miterlimit="4" stroke-dashoffset="0" transform="matrix(0.0065428, 0.0832819, -0.0946214, -0.018891, 229.484, 250.632)" d="M-1064,429.39999C-1064,495.10001 -1125,548.40002 -1200,548.40002C-1275,548.40002 -1336,495.10001 -1336,429.39999C-1336,363.70001 -1275,310.39999 -1200,310.39999C-1125,310.39999 -1064,363.70001 -1064,429.39999z" id="imagebot_49"/>
  <path label="Layer 1" fill="#0000ff" stroke="#000000" stroke-width="2.4" stroke-miterlimit="4" id="imagebot_48" d="M1590,736.20001C1561,750.20001 1596,819.70001 1610,847.20001C1617,861 1675,831.40002 1669,817.59998C1655,790.09998 1620,720.90002 1590,736.20001z" transform="matrix(-0.0785564, -0.715505, 0.713818, -0.078742, -292.73, 1388.79)"/>
  <path label="Layer 1" fill="#0000ff" fill-rule="evenodd" stroke="#000000" stroke-width="2.4003" stroke-linecap="round" stroke-linejoin="round" stroke-miterlimit="4" stroke-dashoffset="0" d="M105,120.5C104,120.5 104,120.5 104,120.5L104,120.5L102,120.5L102,120.5C85,121.7 67,134 54,147.60001C30,177.39999 19,217.89999 18,255.89999C19,265.39999 16,277.39999 22,285.60001C47,296.29999 76,299.10001 102,299.10001L102,299.10001C104,299.10001 104,299.10001 105,299.10001L105,299.10001C129,297.5 170,296.39999 187,285.60001C192,277.39999 190,265.39999 190,255.89999C190,217.89999 179,177.39999 155,147.60001C140,134 125,121.7 105,120.5L105,120.5z" id="imagebot_47" transform="matrix(0.718139, 0, 0, 0.719835, 13.5905, 31.0002)"/>
  <path label="Layer 1" fill="#202020" fill-rule="evenodd" id="imagebot_46" d="M1642,690.29999L1641,690.40002L1640,690.40002C1639,690.5 1639,690.79999 1638,690.90002L1639,690.79999L1640,690.79999C1653,691.79999 1662,704 1671,717.59998C1687,747.29999 1694,787.59998 1694,825.5C1694,835.09998 1696,847 1693,855.29999C1692.40002,855.90002 1691.59998,856.59998 1690.80005,857.20001C1691.5,857 1692.19995,856.90002 1692.80005,856.79999C1693.59998,856.09998 1694.30005,855.40002 1695,854.70001C1698,846.5 1696,834.5 1697,825C1696,787.09998 1689,746.70001 1674,717.09998C1665,703.5 1656,691.29999 1643,690.29999L1642,690.29999z" stroke-width="2.4" stroke-miterlimit="4" transform="matrix(0.718139, 0, 0, 0.719835, -1094.86, -371.295)"/>
  <path label="Layer 1" fill="none" stroke="#000000" stroke-width="28.521" stroke-linecap="round" stroke-linejoin="round" stroke-miterlimit="4" stroke-dashoffset="0" id="imagebot_45" d="M-238,555.40002C-238,585.79999 -261.70001,610.40002 -291,610.40002C-320.29999,610.40002 -344,585.79999 -344,555.40002C-344,525 -320.29999,500.39999 -291,500.39999C-261.70001,500.39999 -238,525 -238,555.40002z" transform="matrix(0.0662124, 0, 0, 0.0552834, 143.933, 172.326)"/>
  <path label="Layer 1" fill="none" stroke="#000000" stroke-width="28.521" stroke-linecap="round" stroke-linejoin="round" stroke-miterlimit="4" stroke-dashoffset="0" id="imagebot_44" d="M-238,555.40002C-238,585.79999 -261.70001,610.40002 -291,610.40002C-320.29999,610.40002 -344,585.79999 -344,555.40002C-344,525 -320.29999,500.39999 -291,500.39999C-261.70001,500.39999 -238,525 -238,555.40002z" transform="matrix(0.0662124, 0, 0, 0.0552834, 144.651, 186.002)"/>
  <path label="Layer 1" fill="none" stroke="#000000" stroke-width="28.521" stroke-linecap="round" stroke-linejoin="round" stroke-miterlimit="4" stroke-dashoffset="0" id="imagebot_43" d="M-238,555.40002C-238,585.79999 -261.70001,610.40002 -291,610.40002C-320.29999,610.40002 -344,585.79999 -344,555.40002C-344,525 -320.29999,500.39999 -291,500.39999C-261.70001,500.39999 -238,525 -238,555.40002z" transform="matrix(0.0662124, 0, 0, 0.0552834, 145.369, 200.255)"/>
  <path label="Layer 1" fill="none" stroke="#000000" stroke-width="28.521" stroke-linecap="round" stroke-linejoin="round" stroke-miterlimit="4" stroke-dashoffset="0" id="imagebot_42" d="M-238,555.40002C-238,585.79999 -261.70001,610.40002 -291,610.40002C-320.29999,610.40002 -344,585.79999 -344,555.40002C-344,525 -320.29999,500.39999 -291,500.39999C-261.70001,500.39999 -238,525 -238,555.40002z" transform="matrix(0.0662124, 0, 0, 0.0552834, 135.315, 131.655)"/>
  <path label="Layer 1" fill="none" stroke="#000000" stroke-width="28.521" stroke-linecap="round" stroke-linejoin="round" stroke-miterlimit="4" stroke-dashoffset="0" id="imagebot_41" d="M-238,555.40002C-238,585.79999 -261.70001,610.40002 -291,610.40002C-320.29999,610.40002 -344,585.79999 -344,555.40002C-344,525 -320.29999,500.39999 -291,500.39999C-261.70001,500.39999 -238,525 -238,555.40002z" transform="matrix(0.0662124, 0, 0, 0.0552834, 139.624, 145.403)"/>
  <path label="Layer 1" fill="none" stroke="#000000" stroke-width="28.521" stroke-linecap="round" stroke-linejoin="round" stroke-miterlimit="4" stroke-dashoffset="0" id="imagebot_40" d="M-238,555.40002C-238,585.79999 -261.70001,610.40002 -291,610.40002C-320.29999,610.40002 -344,585.79999 -344,555.40002C-344,525 -320.29999,500.39999 -291,500.39999C-261.70001,500.39999 -238,525 -238,555.40002z" transform="matrix(0.0662124, 0, 0, 0.0552834, 142.497, 159.656)"/>
  <path label="Layer 1" transform="matrix(0.718139, 0, 0, 0.719835, -1023.4, -382.689)" fill="#0000ff" stroke="#000000" stroke-width="2.4" stroke-miterlimit="4" d="M1492,723.79999C1488,729.40002 1484,735.29999 1481,741.40002C1480,743.70001 1479,745.90002 1478,748.20001C1510,758.40002 1553,766.09998 1564,765.5L1575,740.20001C1550,740.59998 1519,734 1492,723.79999z" id="imagebot_39"/>
  <path label="Layer 1" fill="#d9cdcb" fill-rule="evenodd" stroke="#000000" stroke-width="2.2663" stroke-linecap="round" stroke-linejoin="round" stroke-miterlimit="4" id="imagebot_38" d="M1659,787.29999C1628,799.90002 1577,814.90002 1546,827.20001C1540,830.09998 1537,839.79999 1543,844.70001C1546,847.70001 1549,850.5 1554,850C1558,849.40002 1561,846.70001 1565,845.70001C1593,835.09998 1637,817.79999 1665,807.09998C1667,802.70001 1665,791.79999 1659,787.29999z" transform="matrix(0.747582, -0.138065, 0.137739, 0.749348, -1218.16, -216.263)"/>
  <path label="Layer 1" fill="#d9cdcb" fill-rule="evenodd" stroke="#000000" stroke-width="2.0194" stroke-linecap="round" stroke-linejoin="round" stroke-miterlimit="4" transform="matrix(0.70862, -0.476191, 0.475068, 0.710294, -86.1209, -142.455)" d="M-77.75,423.79999C-77.75,426.70001 -79.48,429 -81.62,429C-83.76,429 -85.5,426.70001 -85.5,423.79999C-85.5,420.89999 -83.76,418.5 -81.62,418.5C-79.48,418.5 -77.75,420.89999 -77.75,423.79999z" id="imagebot_37"/>
  <rect label="Layer 1" transform="matrix(0.718139, 0, 0, 0.719835, -1023.4, -382.689)" fill="#d9c59d" fill-rule="evenodd" stroke="#000000" stroke-width="2.4" stroke-linecap="round" stroke-linejoin="round" stroke-miterlimit="4" stroke-dashoffset="0" id="imagebot_36" width="192.8" height="148.1" x="1454" y="596.9" ry="74.04" rx="96.42"/>
  <path label="Layer 1" transform="matrix(0.718139, 0, 0, 0.719835, -1023.4, -382.689)" fill="#3f322d" fill-rule="evenodd" d="M1551,574.70001C1497,574.70001 1444,616 1444,667C1444,690 1451,711.40002 1465,727.70001C1477,730.09998 1493,722.70001 1513,718.79999C1499,702.59998 1495,689.90002 1501,663C1521,648.70001 1568,647.79999 1584,647.20001C1614,647.20001 1631,652.5 1644,655.5C1648,672.5 1642,701.79999 1629,715.29999C1632,715.70001 1635,715.79999 1635,716C1647,702 1651,685.09998 1651,667C1651,657.09998 1651,647.79999 1648,639.09998C1636,594.09998 1597,575 1551,574.70001z" id="imagebot_24"/>
  <path label="Layer 1" transform="matrix(0.718139, 0, 0, 0.719835, 15.3859, 32.7997)" id="imagebot_15" d="M156.38699,129.13901C153.638,131.877 143.87399,144.88 108.384,131.192C114.235,142.485 123.982,149.67101 135.289,148.645C144.66,147.96001 154.032,139.063 156.38699,129.13901z" stroke-linecap="null" stroke-linejoin="null" stroke-width="2.4" stroke="#000000" fill="#be8889"/>
  <path transform="translate(2, -29) matrix(2.169, 0, 0, 2.166, -18.8, -215.5)" label="Layer 1" fill="#000000" fill-rule="evenodd" d="M54.3907,161.36 A2.19167,2.15598 0 1,1 50.0074,161.36 A2.19167,2.15598 0 1,1 54.3907,161.36 z" id="imagebot_14"/>
  <path label="Layer 1" fill="#000000" fill-rule="evenodd" transform="matrix(1.90149, 0, 0, 1.86794, 24.82, -180.717)" d="M55,152.5A2.5,2.5 0 1 1 50,152.5A2.5,2.5 0 1 1 55,152.5z" id="imagebot_10"/>
  <rect ry="18.94689" rx="14.90007" opacity="0.83" transform="rotate(351, 102.252, 89.3644) matrix(2.26851, -0.00589494, -0.00589494, 2.3048, -8.41743, -10.2559)" id="imagebot_65" height="4.72954" width="43.245" y="40.98325" x="27.27503" stroke-opacity="0" stroke-linecap="round" stroke-linejoin="round" stroke-dasharray="null" stroke-width="1.5" stroke="#000000" fill="#b2b2b2"/>
  <g id="imagebot_61" transform="matrix(2.26758, 0, 0, 2.30573, 5.022, 10.4717)">
   <path stroke-width="1.5" id="imagebot_64" d="M28.9901,2.22829C52.8921,-0.82929 62.2894,13.1119 64.6476,21.9694L71.9544,29.1951L0.65589,40.4877L6.46311,32.1382C4.2991,12.443 18.2373,3.70623 28.9901,2.22829z" stroke-opacity="null" stroke-linecap="round" stroke-linejoin="round" stroke-dasharray="null" stroke="#000000" fill-opacity="null" fill="#ffff00"/>
   <path transform="rotate(6, 21.1374, 18.9906) translate(0, 0.4096)" id="imagebot_63" d="M29.518,25.536C22.0075,9.10052 11.0295,3.66502 12.9865,29.2295" stroke-opacity="null" stroke-linecap="round" stroke-linejoin="round" stroke-dasharray="null" stroke-width="1.5" stroke="#000000" fill-opacity="null" fill="none"/>
   <path id="imagebot_62" d="M44.3571,25.2041C37.6436,-1.78468 55.4331,9.01904 59.5205,21.137" stroke-opacity="null" stroke-linecap="round" stroke-linejoin="round" stroke-dasharray="null" stroke-width="1.5" stroke="#000000" fill="#b2b2b2"/>
  </g>
  <metadata>image/svg+xmlOpenclipartMiserable - Mix and math comic character2013-10-16T20:44:10A miserable mix and match of a comic character.https://openclipart.org/detail/185051/miserable---mix-and-math-comic-character-by-anarres-185051anarrescharactercomicexpressionmiserysadtiredunhappyupsetcartoonpersonmanboy</metadata>
  <path id="imagebot_69" d="M41.56,140 L53.8098,145 L72.9347,153 L96.0595,174 L89.0595,248 C66.893,248 44.7265,246 24.56,236 C20.2267,195 28.8933,168 41.56,140 z" stroke-opacity="null" stroke-linecap="null" stroke-linejoin="null" stroke-dasharray="null" stroke-width="2" stroke="#000000" fill="#ff7f00"/>
  <path label="Layer 1" fill="#d9c59d" fill-rule="evenodd" stroke="#000000" stroke-width="19.6008" stroke-linecap="round" stroke-linejoin="round" stroke-miterlimit="4" stroke-dashoffset="0" transform="matrix(-0.0656654, 0.0514274, 0.0777278, 0.0571527, -59.5068, 272.758)" d="M-1064,429.39999C-1064,495.10001 -1125,548.40002 -1200,548.40002C-1275,548.40002 -1336,495.10001 -1336,429.39999C-1336,363.70001 -1275,310.39999 -1200,310.39999C-1125,310.39999 -1064,363.70001 -1064,429.39999z" id="imagebot_35"/>
  <path label="Layer 1" fill="#0000ff" stroke="#000000" stroke-width="2.4002" stroke-miterlimit="4" id="imagebot_27" d="M1582,713.59998C1614,716.5 1607,793.70001 1603,824.29999C1601,839.70001 1536,833 1538,817.5C1541,786.79999 1549,709.90002 1582,713.59998z" transform="matrix(-0.713974, -0.0768065, -0.0766254, 0.715661, 1234.43, -244.337)"/>
  <path id="imagebot_70" d="M132.873,143.475 L137.03,140.475 C150.363,155.121 158.697,203.766 157.03,237.411 C151.645,241.411 146.259,243.411 138.873,243.411 L130.873,173.443 L132.873,143.475 z" stroke-opacity="null" stroke-linecap="null" stroke-linejoin="null" stroke-dasharray="null" stroke-width="2" stroke="#000000" fill-opacity="null" fill="#ff7f00"/>
 </g>
</svg>