<svg width="232" height="283" xmlns="http://www.w3.org/2000/svg">
 <defs>
  <linearGradient id="imagebot_100" y2="1">
   <stop offset="0" stop-color="#d6f9ff"/>
   <stop offset="1" stop-color="#9ee8f9"/>
  </linearGradient>
 </defs>
 <g id="imagebot_2" label="Layer 1">
  <title label="Layer 1"/>
  <path label="Layer 1" transform="matrix(-0.183205, -0.942509, 0.886835, -0.172383, -38.0539, 298.474)" id="imagebot_80" d="M56.1417,126.464C55.4573,120.037 43.8473,108.377 51.1529,106.589S81.9132,116.562 82.5976,122.989S77.9145,136.076 70.6089,137.864S56.8261,135.892 56.1417,126.464z" fill="#ffedba" stroke-width="2" stroke-linecap="round" stroke="#000000" fill-rule="evenodd" stroke-linejoin="round"/>
  <path transform="matrix(-0.190809, -0.981627, 0.981627, -0.190809, -52.8942, 269.677)" label="Layer 1" id="imagebot_79" d="M48.7159,109.9 C68.9095,118.072 115.261,149.539 106.589,164.567 C97.9166,179.593 50.4413,154.327 33.0616,142.559 C26.6327,138.207 39.866,114.633 48.7166,109.9 L48.7159,109.9 z" fill="#0000ff" stroke-width="1.9411" stroke="#000000"/>
  <path transform="matrix(0.87494, 0, 0, 0.823256, 10.1251, 42.3592)" label="Layer 1" id="imagebot_88" d="M150.897,35.6272 C119.067,32.0309 100.07,52.1744 97.7959,70.1369" fill-opacity="0" stroke-opacity="null" stroke-linecap="round" stroke-linejoin="round" stroke-dasharray="null" stroke-width="1.5" stroke="#000000" fill="#f9f9ac"/>
  <path label="Layer 1" id="imagebot_87" d="M-1064,429.35999C-1064,495.082 -1124.88904,548.35999 -1200,548.35999S-1336,495.082 -1336,429.35999S-1275.11096,310.35999 -1200,310.35999S-1064,363.638 -1064,429.35999z" transform="matrix(-0.0478175, 0.0607351, 0.0854172, 0.0375085, 94.526, 273.06)" fill="#ffdbac" stroke-width="18.542" stroke-linecap="round" stroke="#000000" fill-rule="evenodd" stroke-linejoin="round"/>
  <path label="Layer 1" id="imagebot_86" d="M352.23001,599.84998C350.70499,573.17798 331.77899,506.34201 309.935,509.60699C288.09201,512.87299 299.02399,578.25299 306.08301,603.29999C308.694,612.565 342.80701,607.86603 352.23001,599.849L352.23001,599.84998z" fill="#0000ff" stroke-width="1.9411" stroke="#000000" transform="matrix(0.822822, 0, 0, 0.774218, -85.5558, -258.231)"/>
  <path label="Layer 1" id="imagebot_84" d="M322.42999,655.34998L321.83282,622.96997" fill="none" stroke-width="1.9411" stroke-linecap="round" stroke="#ffffff" stroke-linejoin="round" opacity="0.893" transform="matrix(0.822822, 0, 0, 0.774218, -83.91, -257.457)"/>
  <path label="Layer 1" id="imagebot_83" d="M203.05,656.10999L202.45284,623.72998" fill="none" stroke-width="1.9411" stroke-linecap="round" stroke="#ffffff" stroke-linejoin="round" opacity="0.893" transform="matrix(0.822822, 0, 0, 0.774218, -83.91, -257.457)"/>
  <path label="Layer 1" id="imagebot_82" d="M227.22,583.01001C192.651,583.61499 193.304,621.716 194.965,669.02002C194.88901,669.177 194.84801,669.33099 194.851,669.49103C194.854,669.65698 194.911,669.82898 195.00101,669.99103C195.011,670.23199 195.022,670.46399 195.03,670.70502L195.666,670.68903C199.131,673.26801 213.356,675.19397 230.338,675.16101C249.619,675.12402 265.237,672.58502 265.55701,669.47699L265.57101,669.47699C265.57001,669.44098 265.57001,669.40698 265.569,669.37C265.569,669.36102 265.56799,669.36102 265.569,669.35602C265.569,669.34601 265.569,669.34601 265.56799,669.341C263.871,621.31403 262.76501,582.39001 227.22,583.01001L227.22,583.01001z" fill="url(#imagebot_100)" stroke-width="2.0179" stroke-linecap="round" stroke="#000000" fill-rule="evenodd" stroke-linejoin="round" transform="matrix(0.822822, 0, 0, 0.774218, -83.91, -257.457)"/>
  <path label="Layer 1" id="imagebot_81" d="M292.01001,583.16998C324.569,582.35901 325.60999,620.45099 326.103,667.77899C326.181,667.93201 326.22699,668.08502 326.23099,668.245C326.23499,668.41101 326.189,668.58502 326.112,668.75098C326.11301,668.992 326.112,669.224 326.11499,669.46503L325.51599,669.47498C322.366,672.19299 309.06299,674.69897 293.07999,675.362C274.93301,676.11401 260.12399,674.21698 259.68799,671.125L259.67499,671.125C259.67401,671.08899 259.673,671.05499 259.672,671.01898C259.67099,671.00897 259.672,671.00897 259.67099,671.00403C259.67099,670.99402 259.67099,670.99402 259.67099,670.98901C259.18201,622.93799 258.53101,584.005 292.01001,583.17102L292.01001,583.16998z" fill="#aad4ff" stroke-width="1.9586" stroke-linecap="round" stroke="#000000" fill-rule="evenodd" stroke-linejoin="round" transform="matrix(0.822822, 0, 0, 0.774218, -83.91, -257.457)"/>
  <path label="Layer 1" transform="matrix(0.822822, 0, 0, 0.774218, -10.1745, 34.2019)" id="imagebot_78" d="M169.16701,109.646C168.923,109.646 168.679,109.667 168.436,109.667L168.021,109.667C167.808,109.667 167.591,109.667 167.377,109.667L167.377,109.72C151.06,110.609 135.946,120.356 125.817,132.661C104.106,158.86099 95.8255,193.369 95.0947,226.481C95.6655,234.974 93.9986,245.16901 97.5935,252.533C110.659,260.51099 133.69701,261.84601 149.401,263.70999C153.569,263.896 160.189,263.94699 167.377,263.987L167.377,264.008C168.132,264.008 168.849,264.008 169.593,263.987C169.666,263.987 169.73801,263.987 169.811,263.987C176.998,263.94699 183.618,263.896 187.786,263.70999C203.491,261.84601 226.52901,260.51001 239.593,252.533C243.189,245.16901 241.522,234.974 242.092,226.481C241.36099,193.368 233.08099,158.86099 211.37,132.661C201.241,120.356 186.12601,110.609 169.811,109.72L169.811,109.646C169.59801,109.646 169.38,109.646 169.16701,109.646L169.16701,109.646z" fill="#0000ff" stroke-width="1.9801" stroke-linecap="round" stroke="#000000" fill-rule="evenodd" stroke-linejoin="round"/>
  <path label="Layer 1" id="imagebot_77" d="M265.01001,677.51001S266.38501,654.96997 287.89499,654.59399C316.82901,654.08801 319.70599,676.21002 319.70599,676.21002C322.01999,682.86499 264.41699,686.72699 265.01099,677.51001L265.01001,677.51001z" fill="#000000" stroke-width="2.0808" stroke="#000000" transform="matrix(0.822822, 0, 0, 0.774218, -83.91, -257.457)"/>
  <rect label="Layer 1" id="imagebot_76" rx="70.635" ry="61.147" height="126.51" width="147.6" y="401.18" x="184.26" fill="#ffe0bd" stroke-width="1.9411" stroke-linecap="round" stroke="#000000" fill-rule="evenodd" stroke-linejoin="bevel" transform="matrix(0.822822, 0, 0, 0.774218, -83.91, -257.457)"/>
  <path label="Layer 1" id="imagebot_75" d="M250.06,677.84003S249.30701,655.34998 227.90401,654.38599C199.112,653.09003 195.64301,675.047 195.64301,675.047C193.157,681.612 250.39799,687.03601 250.06,677.84003L250.06,677.84003z" fill="#000000" stroke-width="2.0295" stroke="#000000" transform="matrix(0.822822, 0, 0, 0.774218, -83.91, -257.457)"/>
  <path label="Layer 1" id="imagebot_74" d="M55,152.5C55,153.88071 53.8807,155 52.5,155S50,153.88071 50,152.5S51.1193,150 52.5,150S55,151.11929 55,152.5z" transform="matrix(1.55859, 0, 0, 1.46652, 19.8553, -116.556)" fill="#000000" fill-rule="evenodd"/>
  <path label="Layer 1" id="imagebot_73" d="M55,152.5C55,153.88071 53.8807,155 52.5,155S50,153.88071 50,152.5S51.1193,150 52.5,150S55,151.11929 55,152.5z" transform="matrix(1.55859, 0, 0, 1.46652, 70.5082, -116.556)" fill="#000000" fill-rule="evenodd"/>
  <path label="Layer 1" transform="rotate(315, 125.371, 123.633) matrix(0.79852, 0.0243022, 0.0243022, 0.79852, -5.8851, -2.03213)" id="imagebot_72" d="M174,169C130,170 150,136 150,136L174,169z" fill-opacity="null" stroke-opacity="null" stroke-linecap="round" stroke-linejoin="round" stroke-dasharray="null" stroke-width="2.5" stroke="#000000" fill="#000000"/>
  <path transform="matrix(0.87494, 0, 0, 0.823256, 10.1251, 42.3592)" label="Layer 1" id="imagebot_71" d="M66.0449,82.4263 C67.4836,65.3131 70.1031,44.5462 91.1709,39.3797 C108.494,52.7032 112.062,47.8625 120.853,40.4585 C125.249,36.7564 118.961,51.3565 111.716,60.2933 C124.288,58.6456 131.216,58.74 155.073,34.4481 C150.868,43.24 143.764,70.3615 175.128,58.1476 C158.836,53.3471 162.977,44.5913 169.444,39.3692 C170.135,38.4987 180.251,41.2487 187.434,51.4854 C194.617,61.7218 198.865,82.0576 202.867,83.2625 C215.571,65.6416 203.932,34.5538 205.117,35.9062 C179.239,-9.28324 123.639,-1.52927 95.4989,8.26958 C44.7228,26.9963 66.0449,82.4263 66.0449,82.4263 z" stroke-opacity="null" stroke-linecap="round" stroke-linejoin="round" stroke-dasharray="null" stroke-width="1.5" stroke="#000000" fill="#f9f9ac"/>
  <path label="Layer 1" transform="rotate(23, 104.821, 61.6699) matrix(0.951491, -0.0203992, -0.0203992, 0.912092, -11.6207, 13.8253)" id="imagebot_70" d="M144.698,48.241C135.028,63.2922 124.264,57.5454 114.048,62.1976C105.291,67.5795 99.2704,78.9819 104.196,96.4048" fill-opacity="0" stroke-opacity="null" stroke-linecap="round" stroke-linejoin="round" stroke-dasharray="null" stroke-width="1.5" stroke="#000000" fill="#f9f9ac"/>
  <path label="Layer 1" transform="matrix(0.96015, 0, 0, 0.903433, -31.1, 9.07284)" id="imagebot_68" d="M156.35201,276.772C148.97301,258.95801 118.139,266.64301 116.469,275.944C129.76401,281.22 148.058,283.496 156.35201,276.772z" stroke-opacity="null" stroke-linecap="null" stroke-linejoin="null" stroke-dasharray="null" stroke-width="1.9411" stroke="#000000" fill="#7f3f00"/>
  <path label="Layer 1" transform="matrix(0.96015, 0, 0, 0.903433, -31.1, 9.07284)" id="imagebot_67" d="M215.35201,277.772C207.97301,259.95801 175.13901,263.64301 174.46899,277.944C189.097,282.88699 202.724,279.82901 215.35201,277.772z" stroke-opacity="null" stroke-linecap="null" stroke-linejoin="null" stroke-dasharray="null" stroke-width="1.9411" stroke="#000000" fill="#7f3f00"/>
  <path label="Layer 1" transform="matrix(0.96015, 0, 0, 0.903433, -31.1, 9.07284)" id="imagebot_66" d="M128.19701,267.59601L137.064,273.944L145.62,267.32001C139.812,265.41199 135.005,264.504 128.19701,267.59601z" stroke-opacity="null" stroke-linecap="null" stroke-linejoin="null" stroke-dasharray="null" stroke-width="1.5" stroke="#000000" fill="#472302"/>
  <path label="Layer 1" transform="matrix(0.96015, 0, 0, 0.903433, -31.1, 9.07284)" id="imagebot_65" d="M184.19701,267.59601L193.064,273.944L201.62,267.32001C195.812,265.41199 191.005,264.504 184.19701,267.59601z" stroke-opacity="null" stroke-linecap="null" stroke-linejoin="null" stroke-dasharray="null" stroke-width="1.5" stroke="#000000" fill="#472302"/>
  <path label="Layer 1" transform="rotate(354, 159.419, 57.9017) matrix(0.874375, 0.00537276, 0.00537276, 0.823821, 0.0452402, 31.2974)" id="imagebot_64" d="M162.99001,22.4559C168.50999,30.1431 175.00301,34.3231 189.508,39.7566C205.326,45.7898 200.35899,62.0146 200.664,80.3331" fill-opacity="0" stroke-opacity="null" stroke-linecap="round" stroke-linejoin="round" stroke-dasharray="null" stroke-width="1.5" stroke="#000000" fill="#f9f9ac"/>
  <path label="Layer 1" transform="rotate(288, 116.118, 86.0157) matrix(0.828192, 0.0151893, 0.0151893, 0.870004, 26.4315, 70.0587)" id="imagebot_63" d="M107.99,16.4559C113.51,24.1431 120.003,28.3231 134.508,33.7566" fill-opacity="0" stroke-opacity="null" stroke-linecap="round" stroke-linejoin="round" stroke-dasharray="null" stroke-width="1.5" stroke="#000000" fill="#f9f9ac"/>
  <path transform="matrix(0.87494, 0, 0, 0.823256, 10.1251, 42.3592)" label="Layer 1" id="imagebot_62" d="M203.143,46.0289 C201.065,36.796 186.722,20.4112 168.493,12.7421" fill-opacity="0" stroke-opacity="null" stroke-linecap="round" stroke-linejoin="round" stroke-dasharray="null" stroke-width="1.5" stroke="#000000" fill="#f9f9ac"/>
  <path transform="matrix(0.87494, 0, 0, 0.823256, 10.1251, 42.3592)" label="Layer 1" id="imagebot_61" d="M113.143,35.0289 C102.126,31.9032 87.1443,25.7868 71.4944,51.9028" fill-opacity="0" stroke-opacity="null" stroke-linecap="round" stroke-linejoin="round" stroke-dasharray="null" stroke-width="1.5" stroke="#000000" fill="#f9f9ac"/>
  <path transform="matrix(0.87494, 0, 0, 0.823256, 10.1251, 42.3592)" label="Layer 1" id="imagebot_60" d="M70.1429,37.0289 C69.6603,40.6203 77.3442,22.8083 92.7556,17.8972 C111.167,11.9861 126.306,14.9759 128.733,17.1709" fill-opacity="0" stroke-opacity="null" stroke-linecap="round" stroke-linejoin="round" stroke-dasharray="null" stroke-width="1.5" stroke="#000000" fill="#f9f9ac"/>
  <path label="Layer 1" id="imagebot_59" transform="rotate(240, 150.59, 66.4221) matrix(-0.836177, 0.0223794, -0.0223794, 0.862019, 241.258, 49.8201)" d="M107.99,16.4559C113.51,24.1431 120.003,28.3231 134.508,33.7566" fill-opacity="0" stroke-opacity="null" stroke-linecap="round" stroke-linejoin="round" stroke-dasharray="null" stroke-width="1.5" stroke="#000000" fill="#f9f9ac"/>
  <g transform="translate(1) matrix(2.80517, 0, 0, 2.63186, 53.9036, 12.8063)" id="imagebot_96">
   <g transform="matrix(0.70398, 0, 0, 0.70398, 0, 0)" id="imagebot_90">
    <title/>
    <rect ry="21" rx="21" opacity="0.83" transform="rotate(351, 37.7564, 36.9693) matrix(1, 0, 0, 1, -6.57867, -6.63689)" id="imagebot_95" height="5.24204" width="60.94904" y="40.98511" x="13.86055" stroke-opacity="0" stroke-linecap="round" stroke-linejoin="round" stroke-dasharray="null" stroke-width="1.5" stroke="#000000" fill="#b2b2b2"/>
    <g id="imagebot_91" transform="translate(-0.65589, 1.78468)">
     <path stroke-width="1.5" id="imagebot_94" d="M28.9901,2.22829C52.8921,-0.82929 62.2894,13.1119 64.6476,21.9694L71.9544,29.1951L0.65589,40.4877L6.46311,32.1382C4.2991,12.443 18.2373,3.70623 28.9901,2.22829z" stroke-opacity="null" stroke-linecap="round" stroke-linejoin="round" stroke-dasharray="null" stroke="#000000" fill-opacity="null" fill="#ffff00"/>
     <path transform="rotate(6, 21.1374, 18.9906) translate(0, 0.4096)" id="imagebot_93" d="M29.518,25.536C22.0075,9.10052 11.0295,3.66502 12.9865,29.2295" stroke-opacity="null" stroke-linecap="round" stroke-linejoin="round" stroke-dasharray="null" stroke-width="1.5" stroke="#000000" fill-opacity="null" fill="none"/>
     <path id="imagebot_92" d="M44.3571,25.2041C37.6436,-1.78468 55.4331,9.01904 59.5205,21.137" stroke-opacity="null" stroke-linecap="round" stroke-linejoin="round" stroke-dasharray="null" stroke-width="1.5" stroke="#000000" fill="#b2b2b2"/>
    </g>
   </g>
   <metadata>image/svg+xmlOpenclipartMiserable - Mix and math comic character2013-10-16T20:44:10A miserable mix and match of a comic character.https://openclipart.org/detail/185051/miserable---mix-and-math-comic-character-by-anarres-185051anarrescharactercomicexpressionmiserysadtiredunhappyupsetcartoonpersonmanboy</metadata>
  </g>
  <path id="imagebot_101" d="M80,134 C86.6667,139.667 100.333,147.333 109,149 L121.5,170 L106,240 L66,232 C62.8333,216.333 62.6667,204.667 68,187.125 C72.6667,173.354 84.4583,161.365 68.1875,142.922 L80,134 z" stroke-opacity="null" stroke-linecap="round" stroke-linejoin="round" stroke-dasharray="null" stroke-width="1.5" stroke="#000000" fill="#ff7f00"/>
  <path id="imagebot_103" d="M174.164,135.64 C168.497,140.307 164.831,142.973 158.164,145.64 L147.664,168.64 L158.164,238.64 L187.164,233.64 C190.331,217.973 196.497,209.307 190.164,188.765 C185.497,174.994 177.706,158.005 184.976,144.562 L174.164,135.64 z" stroke-opacity="null" stroke-linecap="round" stroke-linejoin="round" stroke-dasharray="null" stroke-width="1.5" stroke="#000000" fill="#ff7f00"/>
 </g>
 <metadata id="imagebot_1">image/svg+xmlOpenclipart</metadata>
</svg>