<svg width="195" height="259" xmlns="http://www.w3.org/2000/svg">
 <defs>
  <linearGradient y2="1" id="imagebot_36">
   <stop stop-color="#d4cda5" offset="0"/>
   <stop stop-color="#b6ac70" offset="1"/>
  </linearGradient>
 </defs>
 <g label="Layer 1" id="imagebot_2">
  <title label="Layer 1"/>
  <path label="Layer 1" stroke-linejoin="round" stroke="#000000" stroke-linecap="round" stroke-width="12.256" fill="#ffff56" transform="translate(-30.6877, -46.2558) matrix(0.186273, 0, 0, 0.154812, 96.5499, 109.134)" d="M-213.36,635.21002C-229.37199,625.66504 -233.54401,604.18903 -224.157,588.53705C-213.15401,570.19104 -188.50101,565.42804 -170.55499,576.25299C-149.618,588.883 -144.19901,617.07001 -156.629,637.565C-171.06799,661.37305 -203.175,667.51501 -226.495,653.30005C-253.47301,636.85504 -260.41199,600.41302 -244.217,573.97302C-225.554,543.50403 -184.33099,535.68903 -154.453,554.07404C-120.148,575.18304 -111.373,621.66504 -132.173,655.32404C-136.16,661.77563 -141.0941,667.633 -146.758,672.67603" id="imagebot_45"/>
  <path label="Layer 1" stroke-linejoin="round" stroke="#000000" stroke-linecap="round" stroke-width="12.256" fill="#ffff56" transform="translate(-30.6877, -46.2558) matrix(0.186273, 0, 0, 0.154812, 98.0206, 100.171)" d="M-213.36,635.21002C-229.37199,625.66504 -233.54401,604.18903 -224.157,588.53705C-213.15401,570.19104 -188.50101,565.42804 -170.55499,576.25299C-149.618,588.883 -144.19901,617.07001 -156.629,637.565C-171.06799,661.37305 -203.175,667.51501 -226.495,653.30005C-253.47301,636.85504 -260.41199,600.41302 -244.217,573.97302C-225.554,543.50403 -184.33099,535.68903 -154.453,554.07404C-120.148,575.18304 -111.373,621.66504 -132.173,655.32404C-136.16,661.77563 -141.0941,667.633 -146.758,672.67603" id="imagebot_44"/>
  <path label="Layer 1" stroke-linejoin="round" stroke="#000000" stroke-linecap="round" stroke-width="12.256" fill="#ffff56" transform="translate(-30.6877, -46.2558) matrix(0.186273, 0, 0, 0.154812, 98.6594, 86.6154)" d="M-213.36,635.21002C-229.37199,625.66504 -233.54401,604.18903 -224.157,588.53705C-213.15401,570.19104 -188.50101,565.42804 -170.55499,576.25299C-149.618,588.883 -144.19901,617.07001 -156.629,637.565C-171.06799,661.37305 -203.175,667.51501 -226.495,653.30005C-253.47301,636.85504 -260.41199,600.41302 -244.217,573.97302C-225.554,543.50403 -184.33099,535.68903 -154.453,554.07404C-120.148,575.18304 -111.373,621.66504 -132.173,655.32404C-136.16,661.77563 -141.0941,667.633 -146.758,672.67603" id="imagebot_43"/>
  <path label="Layer 1" stroke-linejoin="round" stroke="#000000" stroke-linecap="round" stroke-width="12.256" fill="#ffff56" transform="translate(-30.6877, -46.2558) matrix(0.186273, 0, 0, 0.154812, 99.9598, 72.4501)" d="M-213.36,635.21002C-229.37199,625.66504 -233.54401,604.18903 -224.157,588.53705C-213.15401,570.19104 -188.50101,565.42804 -170.55499,576.25299C-149.618,588.883 -144.19901,617.07001 -156.629,637.565C-171.06799,661.37305 -203.175,667.51501 -226.495,653.30005C-253.47301,636.85504 -260.41199,600.41302 -244.217,573.97302C-225.554,543.50403 -184.33099,535.68903 -154.453,554.07404C-120.148,575.18304 -111.373,621.66504 -132.173,655.32404C-136.16,661.77563 -141.0941,667.633 -146.758,672.67603" id="imagebot_42"/>
  <rect label="Layer 1" transform="translate(-30.6877, -46.2558) matrix(-1.0657, 0, 0, 1.01616, -200.908, -425.683)" fill-rule="evenodd" fill="#ffff56" x="-374.42" y="554.71" width="121.65" height="62.263" ry="9.895" rx="8.1432" id="imagebot_41"/>
  <path label="Layer 1" transform="translate(-30.6877, -46.2558) matrix(-0.643454, 2.08946, 1.87964, 0.52627, -484.884, -807.23)" stroke-linejoin="round" fill-rule="evenodd" stroke="#000000" stroke-linecap="round" stroke-width="1.56" fill="#0000ff" d="M372.97,435.97C366.853,437.57901 360.18799,428.97699 357.578,414.077C357.117,411.444 373.827,406.39099 374.69501,409.07401C379.332,423.41501 379.18399,434.33499 372.97,435.97L372.97,435.97z" id="imagebot_40"/>
  <rect label="Layer 1" stroke-linejoin="round" fill-rule="evenodd" stroke="#060000" stroke-linecap="round" stroke-width="2.7363" fill="#ffdfc4" x="-273.78" y="625.29" width="26.147" height="19.458" transform="rotate(8.3269, 159.198, 177.966) matrix(-1.02204, 0.298318, 0.298318, 0.972499, -296.691, -361.815)" rx="11.553" ry="9.425" id="imagebot_39"/>
  <path label="Layer 1" transform="translate(-30.6877, -46.2558) matrix(-2.27813, -0.153908, 0.138459, -1.86326, 959.913, 1040.12)" stroke-linejoin="round" fill-rule="evenodd" stroke="#000000" stroke-linecap="round" stroke-width="1.56" fill="#0000ff" d="M372.97,435.97C366.853,437.57901 360.18799,428.97699 357.578,414.077C357.117,411.444 373.827,406.39099 374.69501,409.07401C379.332,423.41501 379.18399,434.33499 372.97,435.97L372.97,435.97z" id="imagebot_38"/>
  <path label="Layer 1" transform="translate(-30.6877, -46.2558) matrix(-1.0657, 0, 0, 1.01616, -200.908, -425.683)" fill-rule="evenodd" fill="#c6bf71" fill-opacity="0.58447" d="M-313.87,575.60999L-313.87,575.66699C-326.104,576.36102 -337.41,583.98798 -345.005,593.59003C-356.633,608.19299 -363.12799,626.08502 -366.08701,644.54401C-353.11899,646.49701 -339.59201,647.48297 -328.69,648.62299C-323.02399,648.84497 -314.04599,648.862 -304.276,648.90997L-304.276,648.96802C-303.25101,648.96802 -302.242,648.935 -301.23099,648.90997C-301.13199,648.90997 -301.043,648.91101 -300.944,648.90997C-291.17401,648.86298 -282.19501,648.84601 -276.53,648.62299C-271.31601,648.078 -265.47198,647.552 -259.41101,646.95697C-262.17999,627.646 -268.758,608.83301 -280.89499,593.591C-288.48999,583.98901 -299.79599,576.362 -312.03,575.66803L-312.03,575.61102C-312.19,575.61102 -312.38699,575.61102 -312.547,575.61102L-313.064,575.61102L-313.35101,575.61102C-313.51099,575.61102 -313.70801,575.60999 -313.86801,575.61102L-313.87,575.60999z" id="imagebot_37"/>
  <rect label="Layer 1" stroke-linejoin="round" fill-rule="evenodd" stroke="#000000" stroke-linecap="round" stroke-width="3.2907" fill="url(#imagebot_36)" x="-362.19" y="645.73" width="99.018" height="60.97" transform="translate(-30.6877, -46.2558) matrix(-1.0657, -7.54155e-05, -0.00158097, 1.01616, -200.908, -425.683)" rx="48.657" ry="16.778" id="imagebot_35"/>
  <path label="Layer 1" transform="translate(-30.6877, -46.2558) matrix(-1.0657, 0, 0, 1.01616, -200.908, -425.683)" stroke-linejoin="round" stroke="#000000" stroke-linecap="round" stroke-width="2.0865" fill="#ffffff" d="M-311.85001,704.21002L-312.32614,685.47205" id="imagebot_34"/>
  <path label="Layer 1" transform="translate(-30.6877, -46.2558) matrix(-1.0657, 0, 0, 1.01616, -200.908, -425.683)" stroke="#000000" stroke-width="2.5" fill="#7f3f00" d="M-305.66,711.85999S-305.26199,696.17798 -287.582,695.32599C-263.798,694.17999 -260.71201,709.45502 -260.71201,709.45502C-258.59201,714.01001 -305.849,718.27301 -305.66101,711.85999L-305.66,711.85999z" id="imagebot_33"/>
  <path label="Layer 1" transform="translate(-30.6877, -46.2558) matrix(-1.0657, 0, 0, 1.01616, -200.908, -425.683)" stroke="#000000" stroke-width="2.5" fill="#7f3f00" d="M-316.5,711.69S-316.91699,696.104 -335.479,695.25702C-360.448,694.11798 -363.68799,709.29999 -363.68799,709.29999C-365.914,713.82703 -316.30301,718.06403 -316.50101,711.69098L-316.5,711.69z" id="imagebot_32"/>
  <path label="Layer 1" stroke-linejoin="round" fill-rule="evenodd" stroke="#000000" stroke-linecap="round" stroke-width="3.4653" fill="#0000ff" d="M106.883,109.678C106.642,109.678 106.401,109.7 106.162,109.7L105.753,109.7C105.543,109.7 105.328,109.7 105.117,109.7L105.117,109.756C89.0233,110.682 74.1132,120.846 64.1217,133.677C42.7049,160.996 34.5367,196.978 33.8158,231.50301C34.3788,240.35899 32.7344,250.99001 36.2811,258.668C49.168,266.98599 71.8939,268.379 87.3857,270.323C91.4967,270.51599 98.0267,270.57001 105.117,270.612L105.117,270.633C105.86,270.633 106.567,270.633 107.302,270.612C107.374,270.612 107.445,270.612 107.518,270.612C114.606,270.57001 121.137,270.51599 125.248,270.323C140.74001,268.379 163.466,266.98599 176.353,258.668C179.899,250.98801 178.255,240.35899 178.819,231.50301C178.097,196.976 169.929,160.996 148.51199,133.677C138.521,120.846 123.611,110.682 107.516,109.756L107.516,109.678C107.306,109.678 107.091,109.678 106.881,109.678L106.883,109.678z" id="imagebot_31" transform="translate(-30.6877, -46.2558) matrix(-0.810087, 0, 0, 0.760456, 219.432, 68)"/>
  <rect label="Layer 1" transform="translate(-30.6877, -46.2558) matrix(-1.0657, 0, 0, 1.01616, -200.908, -425.683)" stroke-linejoin="bevel" fill-rule="evenodd" stroke="#000000" stroke-linecap="round" stroke-width="3.2907" fill="#ffdfc4" x="-368.73" y="498.38" width="115.17" height="98.72" ry="47.715" rx="55.119" id="imagebot_30"/>
  <path label="Layer 1" stroke-linejoin="round" stroke="#000000" stroke-linecap="round" stroke-width="12.256" fill="#ffff56" transform="translate(-30.6877, -46.2558) matrix(-0.186272, 0, 0, 0.154814, 162.426, 38.9629)" d="M-213.36,635.21002C-229.37199,625.66504 -233.54401,604.18903 -224.157,588.53705C-213.15401,570.19104 -188.50101,565.42804 -170.55499,576.25299C-149.618,588.883 -144.19901,617.07001 -156.629,637.565C-171.06799,661.37305 -203.175,667.51501 -226.495,653.30005C-253.47301,636.85504 -260.41199,600.41302 -244.217,573.97302C-225.554,543.50403 -184.33099,535.68903 -154.453,554.07404C-120.148,575.18304 -111.373,621.66504 -132.173,655.32404C-136.16,661.77563 -141.0941,667.633 -146.758,672.67603" id="imagebot_29"/>
  <path label="Layer 1" stroke-linejoin="round" stroke="#000000" stroke-linecap="round" stroke-width="12.256" fill="#ffff56" transform="translate(-30.6877, -46.2558) matrix(-0.186272, 0, 0, 0.154814, 167.881, 52.5251)" d="M-213.36,635.21002C-229.37199,625.66504 -233.54401,604.18903 -224.157,588.53705C-213.15401,570.19104 -188.50101,565.42804 -170.55499,576.25299C-149.618,588.883 -144.19901,617.07001 -156.629,637.565C-171.06799,661.37305 -203.175,667.51501 -226.495,653.30005C-253.47301,636.85504 -260.41199,600.41302 -244.217,573.97302C-225.554,543.50403 -184.33099,535.68903 -154.453,554.07404C-120.148,575.18304 -111.373,621.66504 -132.173,655.32404C-136.16,661.77563 -141.0941,667.633 -146.758,672.67603" id="imagebot_28"/>
  <path label="Layer 1" stroke-linejoin="round" stroke="#000000" stroke-linecap="round" stroke-width="12.256" fill="#ffff56" transform="translate(-30.6877, -46.2558) matrix(-0.186272, 0, 0, 0.154814, 167.517, 66.5034)" d="M-213.36,635.21002C-229.37199,625.66504 -233.54401,604.18903 -224.157,588.53705C-213.15401,570.19104 -188.50101,565.42804 -170.55499,576.25299C-149.618,588.883 -144.19901,617.07001 -156.629,637.565C-171.06799,661.37305 -203.175,667.51501 -226.495,653.30005C-253.47301,636.85504 -260.41199,600.41302 -244.217,573.97302C-225.554,543.50403 -184.33099,535.68903 -154.453,554.07404C-120.148,575.18304 -111.373,621.66504 -132.173,655.32404C-136.16,661.77563 -141.0941,667.633 -146.758,672.67603" id="imagebot_27"/>
  <path label="Layer 1" stroke-linejoin="round" stroke="#000000" stroke-linecap="round" stroke-width="12.256" fill="#ffff56" transform="translate(-30.6877, -46.2558) matrix(-0.186272, 0, 0, 0.154814, 168.815, 80.6667)" d="M-213.36,635.21002C-229.37199,625.66504 -233.54401,604.18903 -224.157,588.53705C-213.15401,570.19104 -188.50101,565.42804 -170.55499,576.25299C-149.618,588.883 -144.19901,617.07001 -156.629,637.565C-171.06799,661.37305 -203.175,667.51501 -226.495,653.30005C-253.47301,636.85504 -260.41199,600.41302 -244.217,573.97302C-225.554,543.50403 -184.33099,535.68903 -154.453,554.07404C-120.148,575.18304 -111.373,621.66504 -132.173,655.32404C-136.16,661.77563 -141.0941,667.633 -146.758,672.67603" id="imagebot_26"/>
  <path label="Layer 1" stroke-linejoin="round" stroke="#000000" stroke-linecap="round" stroke-width="12.256" fill="#ffff56" transform="translate(-30.6877, -46.2558) matrix(-0.186272, 0, 0, 0.154814, 169.457, 94.2172)" d="M-213.36,635.21002C-229.37199,625.66504 -233.54401,604.18903 -224.157,588.53705C-213.15401,570.19104 -188.50101,565.42804 -170.55499,576.25299C-149.618,588.883 -144.19901,617.07001 -156.629,637.565C-171.06799,661.37305 -203.175,667.51501 -226.495,653.30005C-253.47301,636.85504 -260.41199,600.41302 -244.217,573.97302C-225.554,543.50403 -184.33099,535.68903 -154.453,554.07404C-120.148,575.18304 -111.373,621.66504 -132.173,655.32404C-136.16,661.77563 -141.0941,667.633 -146.758,672.67603" id="imagebot_25"/>
  <path label="Layer 1" stroke-linejoin="round" stroke="#000000" stroke-linecap="round" stroke-width="9.5881" fill="#ffff56" transform="translate(-30.6877, -46.2558) matrix(-0.22157, 0, 0, 0.21267, 129.528, -38.7097)" d="M-213.36,635.21002C-229.37199,625.66504 -233.54401,604.18903 -224.157,588.53705C-213.15401,570.19104 -188.50101,565.42804 -170.55499,576.25299C-149.618,588.883 -144.19901,617.07001 -156.629,637.565C-171.06799,661.37305 -203.175,667.51501 -226.495,653.30005C-253.47301,636.85504 -260.41199,600.41302 -244.217,573.97302C-225.554,543.50403 -184.33099,535.68903 -154.453,554.07404C-120.148,575.18304 -111.373,621.66504 -132.173,655.32404C-136.16,661.77563 -141.0941,667.633 -146.758,672.67603" id="imagebot_24"/>
  <path label="Layer 1" stroke-linejoin="round" stroke="#000000" stroke-linecap="round" stroke-width="9.5881" fill="#ffff56" transform="translate(-30.6877, -46.2558) matrix(0.22157, 0, 0, 0.21267, 184.784, -45.9248)" d="M-213.36,635.21002C-229.37199,625.66504 -233.54401,604.18903 -224.157,588.53705C-213.15401,570.19104 -188.50101,565.42804 -170.55499,576.25299C-149.618,588.883 -144.19901,617.07001 -156.629,637.565C-171.06799,661.37305 -203.175,667.51501 -226.495,653.30005C-253.47301,636.85504 -260.41199,600.41302 -244.217,573.97302C-225.554,543.50403 -184.33099,535.68903 -154.453,554.07404C-120.148,575.18304 -111.373,621.66504 -132.173,655.32404C-136.16,661.77563 -141.0941,667.633 -146.758,672.67603" id="imagebot_23"/>
  <path label="Layer 1" stroke-linejoin="round" stroke="#000000" stroke-linecap="round" stroke-width="12.256" fill="#ffff56" transform="translate(-30.6877, -46.2558) matrix(0.186272, 0, 0, 0.154814, 112.746, 13.3996)" d="M-213.36,635.21002C-229.37199,625.66504 -233.54401,604.18903 -224.157,588.53705C-213.15401,570.19104 -188.50101,565.42804 -170.55499,576.25299C-149.618,588.883 -144.19901,617.07001 -156.629,637.565C-171.06799,661.37305 -203.175,667.51501 -226.495,653.30005C-253.47301,636.85504 -260.41199,600.41302 -244.217,573.97302C-225.554,543.50403 -184.33099,535.68903 -154.453,554.07404C-120.148,575.18304 -111.373,621.66504 -132.173,655.32404C-136.16,661.77563 -141.0941,667.633 -146.758,672.67603" id="imagebot_22"/>
  <path label="Layer 1" stroke-linejoin="round" stroke="#000000" stroke-linecap="round" stroke-width="9.5881" fill="#ffff56" transform="translate(-30.6877, -46.2558) matrix(-0.22157, 0, 0, 0.21267, 73.6049, -44.9071)" d="M-213.36,635.21002C-229.37199,625.66504 -233.54401,604.18903 -224.157,588.53705C-213.15401,570.19104 -188.50101,565.42804 -170.55499,576.25299C-149.618,588.883 -144.19901,617.07001 -156.629,637.565C-171.06799,661.37305 -203.175,667.51501 -226.495,653.30005C-253.47301,636.85504 -260.41199,600.41302 -244.217,573.97302C-225.554,543.50403 -184.33099,535.68903 -154.453,554.07404C-120.148,575.18304 -111.373,621.66504 -132.173,655.32404C-136.16,661.77563 -141.0941,667.633 -146.758,672.67603" id="imagebot_21"/>
  <path label="Layer 1" stroke-linejoin="round" stroke="#000000" stroke-linecap="round" stroke-width="9.5881" fill="#ffff56" transform="translate(-30.6877, -46.2558) matrix(-0.22157, 0, 0, 0.21267, 51.4519, -34.5825)" d="M-213.36,635.21002C-229.37199,625.66504 -233.54401,604.18903 -224.157,588.53705C-213.15401,570.19104 -188.50101,565.42804 -170.55499,576.25299C-149.618,588.883 -144.19901,617.07001 -156.629,637.565C-171.06799,661.37305 -203.175,667.51501 -226.495,653.30005C-253.47301,636.85504 -260.41199,600.41302 -244.217,573.97302C-225.554,543.50403 -184.33099,535.68903 -154.453,554.07404C-120.148,575.18304 -111.373,621.66504 -132.173,655.32404C-136.16,661.77563 -141.0941,667.633 -146.758,672.67603" id="imagebot_20"/>
  <path label="Layer 1" stroke-linejoin="round" stroke="#000000" stroke-linecap="round" stroke-width="12.256" fill="#ffff56" transform="translate(-30.6877, -46.2558) matrix(-0.186272, 0, 0, 0.154814, 170.925, 103.178)" d="M-213.36,635.21002C-229.37199,625.66504 -233.54401,604.18903 -224.157,588.53705C-213.15401,570.19104 -188.50101,565.42804 -170.55499,576.25299C-149.618,588.883 -144.19901,617.07001 -156.629,637.565C-171.06799,661.37305 -203.175,667.51501 -226.495,653.30005C-253.47301,636.85504 -260.41199,600.41302 -244.217,573.97302C-225.554,543.50403 -184.33099,535.68903 -154.453,554.07404C-120.148,575.18304 -111.373,621.66504 -132.173,655.32404C-136.16,661.77563 -141.0941,667.633 -146.758,672.67603" id="imagebot_19"/>
  <path label="Layer 1" stroke-linejoin="round" stroke="#000000" stroke-linecap="round" stroke-width="12.256" fill="#ffff56" transform="translate(-30.6877, -46.2558) matrix(0.186273, 0, 0, 0.154812, 102.869, 32.2812)" d="M-213.36,635.21002C-229.37199,625.66504 -233.54401,604.18903 -224.157,588.53705C-213.15401,570.19104 -188.50101,565.42804 -170.55499,576.25299C-149.618,588.883 -144.19901,617.07001 -156.629,637.565C-171.06799,661.37305 -203.175,667.51501 -226.495,653.30005C-253.47301,636.85504 -260.41199,600.41302 -244.217,573.97302C-225.554,543.50403 -184.33099,535.68903 -154.453,554.07404C-120.148,575.18304 -111.373,621.66504 -132.173,655.32404C-136.16,661.77563 -141.0941,667.633 -146.758,672.67603" id="imagebot_18"/>
  <path label="Layer 1" stroke-linejoin="round" stroke="#000000" stroke-linecap="round" stroke-width="12.256" fill="#ffff56" transform="translate(-30.6877, -46.2558) matrix(0.186273, 0, 0, 0.154812, 100.247, 44.9223)" d="M-213.36,635.21002C-229.37199,625.66504 -233.54401,604.18903 -224.157,588.53705C-213.15401,570.19104 -188.50101,565.42804 -170.55499,576.25299C-149.618,588.883 -144.19901,617.07001 -156.629,637.565C-171.06799,661.37305 -203.175,667.51501 -226.495,653.30005C-253.47301,636.85504 -260.41199,600.41302 -244.217,573.97302C-225.554,543.50403 -184.33099,535.68903 -154.453,554.07404C-120.148,575.18304 -111.373,621.66504 -132.173,655.32404C-136.16,661.77563 -141.0941,667.633 -146.758,672.67603" id="imagebot_17"/>
  <path label="Layer 1" stroke-linejoin="round" stroke="#000000" stroke-linecap="round" stroke-width="12.256" fill="#ffff56" transform="translate(-30.6877, -46.2558) matrix(0.186273, 0, 0, 0.154812, 99.5972, 58.4677)" d="M-213.36,635.21002C-229.37199,625.66504 -233.54401,604.18903 -224.157,588.53705C-213.15401,570.19104 -188.50101,565.42804 -170.55499,576.25299C-149.618,588.883 -144.19901,617.07001 -156.629,637.565C-171.06799,661.37305 -203.175,667.51501 -226.495,653.30005C-253.47301,636.85504 -260.41199,600.41302 -244.217,573.97302C-225.554,543.50403 -184.33099,535.68903 -154.453,554.07404C-120.148,575.18304 -111.373,621.66504 -132.173,655.32404C-136.16,661.77563 -141.0941,667.633 -146.758,672.67603" id="imagebot_16"/>
  <path label="Layer 1" stroke-linejoin="round" stroke="#000000" stroke-linecap="round" stroke-width="9.5881" fill="#ffff56" transform="translate(-30.6877, -46.2558) matrix(0.221569, 0, 0, 0.212662, 137.952, -28.6988)" d="M-213.36,635.21002C-229.37199,625.66504 -233.54401,604.18903 -224.157,588.53705C-213.15401,570.19104 -188.50101,565.42804 -170.55499,576.25299C-149.618,588.883 -144.19901,617.07001 -156.629,637.565C-171.06799,661.37305 -203.175,667.51501 -226.495,653.30005C-253.47301,636.85504 -260.41199,600.41302 -244.217,573.97302C-225.554,543.50403 -184.33099,535.68903 -154.453,554.07404C-120.148,575.18304 -111.373,621.66504 -132.173,655.32404C-136.16,661.77563 -141.0941,667.633 -146.758,672.67603" id="imagebot_15"/>
  <path label="Layer 1" stroke-linejoin="round" stroke="#000000" stroke-linecap="round" stroke-width="9.5881" fill="#ffff56" transform="translate(-30.6877, -46.2558) matrix(-0.221569, 0, 0, 0.212662, 82.6846, -35.9132)" d="M-213.36,635.21002C-229.37199,625.66504 -233.54401,604.18903 -224.157,588.53705C-213.15401,570.19104 -188.50101,565.42804 -170.55499,576.25299C-149.618,588.883 -144.19901,617.07001 -156.629,637.565C-171.06799,661.37305 -203.175,667.51501 -226.495,653.30005C-253.47301,636.85504 -260.41199,600.41302 -244.217,573.97302C-225.554,543.50403 -184.33099,535.68903 -154.453,554.07404C-120.148,575.18304 -111.373,621.66504 -132.173,655.32404C-136.16,661.77563 -141.0941,667.633 -146.758,672.67603" id="imagebot_14"/>
  <path label="Layer 1" stroke-linejoin="round" stroke="#000000" stroke-linecap="round" stroke-width="12.256" fill="#ffff56" transform="translate(-30.6877, -46.2558) matrix(-0.186273, 0, 0, 0.154812, 149.926, 23.4102)" d="M-213.36,635.21002C-229.37199,625.66504 -233.54401,604.18903 -224.157,588.53705C-213.15401,570.19104 -188.50101,565.42804 -170.55499,576.25299C-149.618,588.883 -144.19901,617.07001 -156.629,637.565C-171.06799,661.37305 -203.175,667.51501 -226.495,653.30005C-253.47301,636.85504 -260.41199,600.41302 -244.217,573.97302C-225.554,543.50403 -184.33099,535.68903 -154.453,554.07404C-120.148,575.18304 -111.373,621.66504 -132.173,655.32404C-136.16,661.77563 -141.0941,667.633 -146.758,672.67603" id="imagebot_13"/>
  <path label="Layer 1" stroke-linejoin="round" stroke="#000000" stroke-linecap="round" stroke-width="12.256" fill="#ffff56" transform="translate(-30.6877, -46.2558) matrix(0.186273, 0, 0, 0.154812, 113.835, 17.6485)" d="M-213.36,635.21002C-229.37199,625.66504 -233.54401,604.18903 -224.157,588.53705C-213.15401,570.19104 -188.50101,565.42804 -170.55499,576.25299C-149.618,588.883 -144.19901,617.07001 -156.629,637.565C-171.06799,661.37305 -203.175,667.51501 -226.495,653.30005C-253.47301,636.85504 -260.41199,600.41302 -244.217,573.97302C-225.554,543.50403 -184.33099,535.68903 -154.453,554.07404C-120.148,575.18304 -111.373,621.66504 -132.173,655.32404C-136.16,661.77563 -141.0941,667.633 -146.758,672.67603" id="imagebot_12"/>
  <path label="Layer 1" stroke-linejoin="round" stroke="#000000" stroke-linecap="round" stroke-width="9.5881" fill="#ffff56" transform="translate(-30.6877, -46.2558) matrix(0.221569, 0, 0, 0.212662, 193.869, -34.8874)" d="M-213.36,635.21002C-229.37199,625.66504 -233.54401,604.18903 -224.157,588.53705C-213.15401,570.19104 -188.50101,565.42804 -170.55499,576.25299C-149.618,588.883 -144.19901,617.07001 -156.629,637.565C-171.06799,661.37305 -203.175,667.51501 -226.495,653.30005C-253.47301,636.85504 -260.41199,600.41302 -244.217,573.97302C-225.554,543.50403 -184.33099,535.68903 -154.453,554.07404C-120.148,575.18304 -111.373,621.66504 -132.173,655.32404C-136.16,661.77563 -141.0941,667.633 -146.758,672.67603" id="imagebot_11"/>
  <path label="Layer 1" stroke-linejoin="round" stroke="#000000" stroke-linecap="round" stroke-width="9.5881" fill="#ffff56" transform="translate(-30.6877, -46.2558) matrix(0.221569, 0, 0, 0.212662, 216.025, -24.5627)" d="M-213.36,635.21002C-229.37199,625.66504 -233.54401,604.18903 -224.157,588.53705C-213.15401,570.19104 -188.50101,565.42804 -170.55499,576.25299C-149.618,588.883 -144.19901,617.07001 -156.629,637.565C-171.06799,661.37305 -203.175,667.51501 -226.495,653.30005C-253.47301,636.85504 -260.41199,600.41302 -244.217,573.97302C-225.554,543.50403 -184.33099,535.68903 -154.453,554.07404C-120.148,575.18304 -111.373,621.66504 -132.173,655.32404C-136.16,661.77563 -141.0941,667.633 -146.758,672.67603" id="imagebot_10"/>
  <rect label="Layer 1" stroke-linejoin="round" fill-rule="evenodd" stroke="#060000" stroke-linecap="round" stroke-width="2.736" fill="#ffdfc4" x="353" y="534.93" width="26.147" height="19.458" transform="rotate(66.4196, 14.562, 122.74) matrix(-0.565269, -0.861321, 0.854147, -0.614284, -243.727, 772.622)" rx="11.553" ry="9.425" id="imagebot_9"/>
  <path label="Layer 1" transform="translate(0.512) matrix(-1.0657, 0, 0, 1.01616, -242.847, -478.759)" fill="#000000" d="M-334.16,558.81C-334.16,560.84058 -335.80481,562.48608 -337.83609,562.48608C-339.8667,562.48608 -341.51291,560.84058 -341.51291,558.81C-341.51291,556.78003 -339.8667,555.13312 -337.83609,555.13312C-335.80481,555.13312 -334.16,556.77991 -334.16,558.81" id="imagebot_8"/>
  <path label="Layer 1" transform="translate(-0.512) matrix(-1.0657, 0, 0, 1.01616, -227.931, -478.759)" fill="#000000" d="M-288.09,557.97998C-288.09,560.01056 -289.7348,561.65607 -291.76611,561.65607C-293.79669,561.65607 -295.4429,560.01056 -295.4429,557.97998C-295.4429,555.94995 -293.79669,554.30316 -291.76611,554.30316C-289.7348,554.30316 -288.09,555.94995 -288.09,557.97998" id="imagebot_7"/>
  <path label="Layer 1" fill="#ff7f00" stroke="#000000" stroke-width="2.5" stroke-dasharray="null" stroke-linejoin="round" stroke-linecap="round" stroke-opacity="null" d="M40,172.481L54.5,168.981L70,176.481L82.5,195.45799L70,275.436L35,266.436C32,248.11 34,234.784 36,223.45799C40,187.979 47,200.424 40,172.481z" id="imagebot_5" transform="translate(-30.6877, -46.2558) matrix(-1, 0, 0, 1, 227.432, 0)"/>
  <path label="Layer 1" fill="#ff7f00" stroke="#000000" stroke-width="2.5" stroke-dasharray="null" stroke-linejoin="round" stroke-linecap="round" stroke-opacity="null" d="M135.214,171.30901L114.069,180.16499L104.426,196.45599L114.069,275.54199L155.07201,266.86801C158.586,249.20399 157.243,235.36 154.89999,224.44299C147.214,190.24699 144.01401,195.242 135.214,171.30901z" id="imagebot_4" transform="translate(-30.6877, -46.2558) matrix(-1, 0, 0, 1, 227.432, 0)"/>
  <path label="Layer 1" fill="#000000" stroke="#000000" stroke-width="2.5" stroke-dasharray="null" stroke-linejoin="round" stroke-linecap="round" stroke-opacity="null" fill-opacity="0" d="M79.4983,156.285C90.3349,166.119 100.202,165.817 111.305,158.261C98.057,167.086 89.4466,164.74001 79.4983,156.285z" id="imagebot_3" transform="translate(0.512) matrix(-1, 0, 0, 1, 194.792, -46.2558)"/>
  <path id="imagebot_46" d="M115.275,10.0146 C163.151,20.0708 168.048,54.0289 167.165,71.8606 L180.52,85.7086 L33.8937,57.2074 L49.4483,45.9782 C51.4771,26.3689 72.5124,0.702148 115.275,10.0146 z" stroke-opacity="null" stroke-linecap="round" stroke-linejoin="round" stroke-dasharray="null" stroke-width="2.5" stroke="#000000" fill-opacity="null" fill="#ffff56"/>
  <path id="imagebot_50" d="M60.7099,45 C64.4959,22.3333 93.8684,1.66667 84.8458,52" stroke-opacity="null" stroke-linecap="null" stroke-linejoin="null" stroke-dasharray="null" stroke-width="2" stroke="#000000" fill="#b2b2b2"/>
  <line id="imagebot_51" y2="167" x2="367" y1="231" x1="524" stroke-opacity="null" stroke-linecap="null" stroke-linejoin="null" stroke-dasharray="null" stroke-width="2" stroke="#000000" fill="none"/>
  <line id="imagebot_52" y2="253" x2="510" y1="229" x1="520" stroke-opacity="null" stroke-linecap="null" stroke-linejoin="null" stroke-dasharray="null" stroke-width="2" stroke="#000000" fill="none"/>
  <path transform="rotate(14, 144.634, 46.9459) matrix(-1, 0, 0, 1, 278.269, 2)" id="imagebot_53" d="M120.71,57 C124.496,34.3333 153.868,13.6667 144.846,64" stroke-opacity="null" stroke-linecap="null" stroke-linejoin="null" stroke-dasharray="null" stroke-width="2" stroke="#000000" fill-opacity="null" fill="none"/>
  <path opacity="0.77" id="imagebot_54" d="M152.415,81.3625 C144.417,84.4681 60.6729,71.4996 43.1484,59.6033" stroke-opacity="0" stroke-linecap="null" stroke-linejoin="null" stroke-dasharray="null" stroke-width="2" stroke="#000000" fill="#b2b2b2"/>
 </g>
 <metadata>image/svg+xmlOpenclipart</metadata>
</svg>