<?xml version="1.0" encoding="UTF-8"?>
<svg version="1.1" xmlns="http://www.w3.org/2000/svg" width="317" height="512">
<path d="M0 0 C1.10867935 -0.01606293 2.2173587 -0.03212585 3.3596344 -0.04867554 C8.44499038 -0.09327587 13.5302165 -0.13421663 18.61572266 -0.15722656 C21.29212731 -0.1705146 23.96671433 -0.20098449 26.64306641 -0.23925781 C30.5108927 -0.29426307 34.37768384 -0.31594137 38.24584961 -0.33056641 C39.43163101 -0.35323578 40.61741241 -0.37590515 41.83912659 -0.39926147 C50.33330966 -0.37785192 57.12983217 1.19895833 63.58399963 6.98400879 C68.90876354 12.49739739 72.40226749 19.4130857 76.08569336 26.06787109 C76.78376142 27.31179859 77.48292006 28.55511464 78.18310547 29.79785156 C79.61991422 32.3489164 81.05294973 34.90204384 82.48364258 37.45654297 C85.65447777 43.10612336 88.90227377 48.71120482 92.14819336 54.31787109 C93.38921977 56.46622715 94.63010516 58.61466468 95.87084961 60.76318359 C96.48331543 61.82311523 97.09578125 62.88304687 97.72680664 63.97509766 C100.22267767 68.29550483 102.71594708 72.61741032 105.20898438 76.93945312 C106.45794536 79.10462212 107.70713078 81.26966166 108.95654297 83.43457031 C112.10994687 88.8988248 115.26054487 94.36466498 118.40600586 99.83349609 C121.51828806 105.24306221 124.63839129 110.64803304 127.76586914 116.04882812 C128.98223518 118.15029873 130.19674479 120.25284492 131.40942383 122.35644531 C133.14825034 125.36880517 134.89683416 128.37528448 136.64819336 131.38037109 C137.1601123 132.27079102 137.67203125 133.16121094 138.19946289 134.07861328 C142.67963275 141.72394428 146.70618559 148.54459685 155.58569336 151.19287109 C160.84130141 151.74609299 164.15227652 151.0842299 168.58569336 148.19287109 C172.55698766 143.89762591 175.13793712 139.5892227 177.62475586 134.32177734 C177.98731476 133.57153793 178.34987366 132.82129852 178.72341919 132.04832458 C179.89396247 129.62114889 181.05241185 127.18841868 182.21069336 124.75537109 C183.02277308 123.06555935 183.8356038 121.37610833 184.64916992 119.68701172 C186.62551741 115.57892205 188.59249686 111.46644432 190.55529785 107.35186768 C191.93927348 104.45201162 193.32876222 101.55481024 194.71850586 98.65771484 C196.44795315 95.04902067 198.17268815 91.43812789 199.89428711 87.82568359 C203.62291165 80.00999371 207.38504495 72.21022174 211.16894531 64.42114258 C213.95561741 58.67917703 216.72032617 52.930013 219.40309143 47.13861084 C220.63648832 44.47909566 221.88229216 41.82547761 223.1289978 39.17218018 C223.71725625 37.9111818 224.2994907 36.64735264 224.87515259 35.3805542 C228.48631455 27.43926831 231.68459236 20.9138795 239.85716248 17.14549255 C242.75917927 16.13230135 244.96666229 15.92737945 248.03100586 15.90234375 C249.09561035 15.88958405 250.16021484 15.87682434 251.25708008 15.86367798 C252.96661865 15.86033951 252.96661865 15.86033951 254.71069336 15.85693359 C256.48017334 15.84694839 256.48017334 15.84694839 258.28540039 15.83676147 C260.77675824 15.82664723 263.26814312 15.82194407 265.75952148 15.82226562 C269.57182278 15.81788702 273.38297138 15.78153715 277.19506836 15.74365234 C279.6169394 15.7377851 282.03881594 15.73381509 284.46069336 15.73193359 C285.60038574 15.71756256 286.74007813 15.70319153 287.91430664 15.68838501 C295.78921996 15.73390086 295.78921996 15.73390086 299.78100586 18.03417969 C302.98688766 21.86892087 302.94636213 25.34888914 302.58569336 30.19287109 C301.5183939 32.82421843 300.43626804 35.15851707 299.08569336 37.63037109 C298.42858094 38.87861539 297.77238578 40.12734284 297.11694336 41.37646484 C296.75106676 42.06597638 296.38519016 42.75548792 296.00822639 43.46589375 C294.32043432 46.70136922 292.68740502 49.9629411 291.05953979 53.22880554 C290.71211286 53.92474278 290.36468593 54.62068002 290.00673091 55.33770627 C289.25547824 56.8425603 288.50442048 58.34751166 287.75353765 59.85255027 C286.18818356 62.9894674 284.62106989 66.12550404 283.05397248 69.26155055 C281.77860244 71.81383039 280.50345485 74.36622128 279.22836304 76.91864014 C268.3374814 98.7193041 257.44413074 120.51873355 246.54931831 142.31743336 C245.35033487 144.71641957 244.15136026 147.1154102 242.95239258 149.5144043 C242.65449699 150.11045779 242.3566014 150.70651128 242.04967867 151.320627 C237.22533154 160.97367368 232.40240023 170.6274271 227.57998563 180.28143934 C222.60235052 190.24610738 217.62313341 200.20998393 212.64257705 210.1731922 C209.85683523 215.74597059 207.07177975 221.31908942 204.28845596 226.89307594 C201.66851852 232.13980544 199.04664611 237.38556362 196.42337036 242.63062477 C195.46900059 244.53963623 194.5153002 246.44898254 193.56237411 248.35871506 C167.91558287 299.75148969 167.91558287 299.75148969 154.58569336 317.19287109 C153.91538086 318.08748047 153.24506836 318.98208984 152.55444336 319.90380859 C142.42775562 332.87375866 130.30886837 345.07529097 116.58569336 354.19287109 C115.60987305 354.85158203 114.63405273 355.51029297 113.62866211 356.18896484 C92.19663953 370.01868508 60.7664238 384.56111591 34.58569336 380.19287109 C31.02393007 378.22661113 29.25672587 376.98258028 27.83032227 373.17822266 C25.92419208 364.13813327 25.72042954 354.57961054 25.09814453 345.37597656 C24.89767257 342.43523155 24.68268049 339.49578355 24.46655273 336.55615234 C24.33482048 334.66949434 24.20393158 332.78277722 24.07397461 330.89599609 C24.00946609 330.02606018 23.94495758 329.15612427 23.87849426 328.25982666 C23.09311342 316.19202745 23.09311342 316.19202745 26.31713867 311.8737793 C28.82784395 310.0134472 30.88716012 309.17195708 33.88256836 308.29833984 C34.91607422 307.98638672 35.94958008 307.67443359 37.0144043 307.35302734 C38.65844238 306.8715625 38.65844238 306.8715625 40.33569336 306.38037109 C59.83359929 300.38961295 77.02325321 292.74458889 92.58569336 279.19287109 C93.22120117 278.64115234 93.85670898 278.08943359 94.51147461 277.52099609 C103.61797008 269.04044599 109.19348894 258.33961507 110.66772461 246.07568359 C110.41929561 237.34517891 107.63850981 230.55598806 103.33569336 223.06787109 C102.8070166 222.12339111 102.27833984 221.17891113 101.73364258 220.20581055 C97.23139989 212.20555021 92.59189504 204.28222801 87.94018555 196.36816406 C83.72770522 189.19403569 79.63012825 181.96290116 75.58569336 174.69287109 C70.48964099 165.53927145 65.27669747 156.46343632 59.97851562 147.42553711 C55.44617477 139.68722514 50.9697296 131.9181746 46.52319336 124.13037109 C46.01689392 123.24380325 46.01689392 123.24380325 45.50036621 122.33932495 C40.42716446 113.45210726 35.39521717 104.54193854 30.37402344 95.62524414 C26.5528474 88.85800199 22.64556555 82.14451036 18.71069336 75.44287109 C12.93625148 65.60747878 7.37717254 55.66336297 1.86865234 45.67797852 C-2.19738217 38.32641168 -6.3818104 31.07436497 -10.77758789 23.91552734 C-14.00353966 18.54920662 -15.65958758 14.52571007 -14.41430664 8.19287109 C-10.77292101 2.00136682 -7.1111496 0.09372275 0 0 Z " fill="#4FDBEA" transform="translate(14.414306640625,130.80712890625)"/>
<path d="M0 0 C12.62962602 9.65892555 21.90574966 24.56068896 24.65625 40.3203125 C26.67245176 59.1381956 23.40249569 77.56608884 11.390625 92.67578125 C0.0390834 105.98328079 -15.69676486 115.97455342 -33.42480469 117.4765625 C-54.20609432 118.31014813 -71.56683531 113.38787916 -87.12109375 99.1484375 C-100.23696207 86.50827425 -106.85833698 69.94336337 -107.33984375 51.9609375 C-107.00926784 34.73619274 -101.43079665 18.76571651 -89.2265625 6.375 C-88.50082031 5.68148438 -87.77507812 4.98796875 -87.02734375 4.2734375 C-86.10888672 3.32597656 -86.10888672 3.32597656 -85.171875 2.359375 C-62.16535168 -19.91133201 -24.52806736 -18.01205839 0 0 Z " fill="#4FDBEA" transform="translate(214.02734375,13.7265625)"/>
<path d="M0 0 C-14.59681093 6.51936219 -14.59681093 6.51936219 -22 8 C-22 7.34 -22 6.68 -22 6 C-18.49223216 4.39644899 -15.85645121 3.77963136 -12 4 C-12 3.34 -12 2.68 -12 2 C-10.75579353 1.4654744 -9.50429064 0.94791389 -8.25 0.4375 C-7.55390625 0.14746094 -6.8578125 -0.14257812 -6.140625 -0.44140625 C-3.69987216 -1.07831803 -2.3596345 -0.80248831 0 0 Z " fill="#6BDFEA" transform="translate(110,497)"/>
<path d="M0 0 C0 3.57493773 -1.12816094 4.98049241 -3.421875 7.63671875 C-6.04245294 9.90053484 -8.63843232 10.34086908 -12 11 C-8.19588166 7.08060535 -4.18423892 3.50897269 0 0 Z " fill="#68DEEA" transform="translate(109,408)"/>
<path d="M0 0 C2.63861452 3.18453477 5.1832328 6.27084628 7 10 C6.57421875 12.15234375 6.57421875 12.15234375 6 14 C4.98915735 12.42356682 3.99169489 10.8385483 3 9.25 C2.443125 8.36828125 1.88625 7.4865625 1.3125 6.578125 C0 4 0 4 0 0 Z " fill="#64DEE8" transform="translate(59,248)"/>
<path d="M0 0 C0.66 0.99 1.32 1.98 2 3 C1.34 3 0.68 3 0 3 C0.33 3.99 0.66 4.98 1 6 C-0.3125 8.6875 -0.3125 8.6875 -2 11 C-2.66 11 -3.32 11 -4 11 C-3.52269162 9.5410574 -3.04308958 8.08286504 -2.5625 6.625 C-2.29566406 5.81289062 -2.02882812 5.00078125 -1.75390625 4.1640625 C-1 2 -1 2 0 0 Z " fill="#7CE1EC" transform="translate(221,204)"/>
<path d="M0 0 C3.2910841 3.60957611 4.54663921 6.12637153 5 11 C1.7089159 7.39042389 0.45336079 4.87362847 0 0 Z " fill="#6ADEE9" transform="translate(26,190)"/>
<path d="M0 0 C5.57142857 5.14285714 5.57142857 5.14285714 6 9 C0.42857143 3.85714286 0.42857143 3.85714286 0 0 Z " fill="#5BDCE6" transform="translate(120,102)"/>
</svg>
